<svg xmlns="http://www.w3.org/2000/svg" width="18" height="20" viewBox="0 0 18 20">
  <path id="Icon_awesome-calendar-check" data-name="Icon awesome-calendar-check" d="M17.518,6.25H.482A.476.476,0,0,1,0,5.781V4.375A1.9,1.9,0,0,1,1.929,2.5H3.857V.469A.476.476,0,0,1,4.339,0H5.946a.476.476,0,0,1,.482.469V2.5h5.143V.469A.476.476,0,0,1,12.054,0h1.607a.476.476,0,0,1,.482.469V2.5h1.929A1.9,1.9,0,0,1,18,4.375V5.781A.476.476,0,0,1,17.518,6.25ZM.482,7.5H17.518A.476.476,0,0,1,18,7.969V18.125A1.9,1.9,0,0,1,16.071,20H1.929A1.9,1.9,0,0,1,0,18.125V7.969A.476.476,0,0,1,.482,7.5Zm13.391,3.748-1.132-1.109a.492.492,0,0,0-.682,0L7.8,14.245,5.952,12.434a.492.492,0,0,0-.682,0l-1.141,1.1a.46.46,0,0,0,0,.663l3.319,3.253a.492.492,0,0,0,.682,0l5.744-5.539a.46.46,0,0,0,0-.663Z" fill="#4a4a4a"/>
</svg>
