<svg xmlns="http://www.w3.org/2000/svg" width="16" height="23.273" viewBox="0 0 16 23.273">
  <path id="Icon_ionic-md-female" data-name="Icon ionic-md-female" d="M23.875,9.731a7.755,7.755,0,0,0-8-7.481,7.755,7.755,0,0,0-8,7.481,7.646,7.646,0,0,0,6.667,7.377v2.6h-4V22.2h4v3.325h2.667V22.2h4V19.7h-4v-2.6A7.646,7.646,0,0,0,23.875,9.731Zm-13.333,0a5.177,5.177,0,0,1,5.333-4.987,5.177,5.177,0,0,1,5.333,4.987,5.177,5.177,0,0,1-5.333,4.987A5.177,5.177,0,0,1,10.542,9.731Z" transform="translate(-7.875 -2.25)"/>
</svg>
