<svg xmlns="http://www.w3.org/2000/svg" width="11" height="11" viewBox="0 0 11 11">
  <path id="Icon_feather-message-circle" data-name="Icon feather-message-circle" d="M14.5,9.222a4.656,4.656,0,0,1-.5,2.111,4.722,4.722,0,0,1-4.222,2.611,7,7,0,0,1-1.34-.1,4.615,4.615,0,0,1-1.156-.438L4.5,14.5l1.078-2.625a5.689,5.689,0,0,1-.422-1.484,7.177,7.177,0,0,1-.1-1.168A4.722,4.722,0,0,1,7.667,5a4.656,4.656,0,0,1,2.111-.5h.278A4.711,4.711,0,0,1,14.5,8.944Z" transform="translate(-4 -4)" fill="none" stroke="#000" stroke-linecap="round" stroke-linejoin="round" stroke-width="1"/>
</svg>
